<svg width="1000" height="1000" viewBox="0 0 1000 1000" fill="none" xmlns="http://www.w3.org/2000/svg">
<path fill-rule="evenodd" clip-rule="evenodd" d="M6.51369 822.54C130.548 830.097 173.9 801.921 308.15 701.662C520.498 543.075 748.239 339.755 999.64 376.865L1000 378.101C791.117 381.252 588.831 570.172 386.534 717.033C264.194 805.85 164.027 856.062 6.51369 822.54Z" fill="white"/>
<path fill-rule="evenodd" clip-rule="evenodd" d="M337.067 372.297C325.531 385.367 322.436 405.918 324.559 423.767C327.967 452.432 345.762 479.889 372.162 492.475C432.951 521.453 505.251 483.073 526.728 421.902C545.851 367.43 531.25 312.276 487.296 274.931C421.193 218.771 319.428 230.582 260.455 287.579C174.271 370.877 171.19 513.473 240.584 608.216C260.955 636.028 286.211 659.196 314.792 676.916C309.597 680.804 304.413 684.667 299.236 688.503C270.519 670.864 244.872 648.063 223.667 620.812C46.8217 393.509 206.342 146.661 414.528 168.332C575.911 185.134 641.315 377.286 535.88 497.027C496.155 542.14 436.335 561.83 377.628 549.933C320.66 538.387 277.17 488.221 268.661 431.654C261.378 383.238 280.813 340.208 325.211 319.004C357.13 303.598 408.169 309.961 421.686 358.332C429.135 381.041 416.689 405.638 393.979 413.089C371.267 420.537 346.669 408.089 339.22 385.379C337.798 381.041 337.106 376.639 337.067 372.297ZM419.757 714.585C424.308 715.203 428.888 715.717 433.493 716.108C520.087 723.452 605.266 689.106 666.073 627.767C686.152 607.514 703.505 584.423 717.472 559.481C718.26 560.299 719.062 561.103 719.88 561.885C716.988 567.932 713.836 573.861 710.338 579.641C652.507 675.229 544.913 736.436 432.475 730.131C422.469 729.568 412.559 728.485 402.781 726.905C408.44 722.832 414.097 718.721 419.757 714.585Z" fill="white"/>
</svg>
